<svg xmlns="http://www.w3.org/2000/svg" viewBox="0 0 1280 800" width="1280" height="800" role="img"><rect x="0.0" y="0.0" width="1280.0" height="800.0" fill="#ffffff"/><rect x="0.0" y="0.0" width="1280.0" height="30.0" fill="#111111"/><rect x="522.0" y="11.0" width="236.0" height="8.0" fill="#ffffff" rx="4.0" opacity="0.70"/><rect x="0.0" y="30.0" width="1280.0" height="66.0" fill="#ffffff"/><rect x="72.0" y="56.0" width="84.0" height="14.0" fill="#151515" rx="3.0" opacity="0.90"/><rect x="1146.0" y="58.0" width="62.0" height="10.0" fill="#a2a2a2" rx="5.0" opacity="0.75"/><rect x="1072.0" y="58.0" width="40.0" height="10.0" fill="#a2a2a2" rx="5.0" opacity="0.75"/><rect x="980.0" y="58.0" width="58.0" height="10.0" fill="#a2a2a2" rx="5.0" opacity="0.75"/><rect x="900.0" y="58.0" width="46.0" height="10.0" fill="#a2a2a2" rx="5.0" opacity="0.75"/><circle cx="1200.0" cy="63.0" r="9.0" fill="#151515" opacity="0.75"/><line x1="0.0" y1="96.0" x2="1280.0" y2="96.0" stroke="#e4e4e4" stroke-width="2.0"/><rect x="72.0" y="128.0" width="1136.0" height="158.0" fill="#f1f1f1" rx="12.0"/><rect x="72.0" y="128.0" width="1136.0" height="158.0" fill="#a2a2a2" rx="12.0" opacity="0.18"/><rect x="120.0" y="176.0" width="288.0" height="26.0" fill="#151515" rx="4.0" opacity="0.85"/><rect x="120.0" y="216.0" width="196.0" height="26.0" fill="#151515" rx="4.0" opacity="0.85"/><rect x="72.0" y="322.0" width="84.0" height="9.0" fill="#a2a2a2" rx="4.0" opacity="0.70"/><rect x="1090.0" y="316.0" width="118.0" height="22.0" fill="#f1f1f1" rx="11.0"/><rect x="72.0" y="358.0" width="266.0" height="158.0" fill="#f1f1f1" rx="8.0"/><rect x="72.0" y="358.0" width="266.0" height="158.0" fill="#a2a2a2" rx="8.0" opacity="0.12"/><circle cx="205.0" cy="437.0" r="34.0" fill="#ffffff" opacity="0.55"/><rect x="72.0" y="532.0" width="148.0" height="10.0" fill="#151515" rx="5.0" opacity="0.75"/><rect x="72.0" y="552.0" width="60.0" height="9.0" fill="#a2a2a2" rx="4.0" opacity="0.55"/><rect x="362.0" y="358.0" width="266.0" height="158.0" fill="#f1f1f1" rx="8.0"/><rect x="362.0" y="358.0" width="266.0" height="158.0" fill="#a2a2a2" rx="8.0" opacity="0.18"/><circle cx="495.0" cy="437.0" r="34.0" fill="#ffffff" opacity="0.55"/><rect x="362.0" y="532.0" width="148.0" height="10.0" fill="#151515" rx="5.0" opacity="0.75"/><rect x="362.0" y="552.0" width="60.0" height="9.0" fill="#a2a2a2" rx="4.0" opacity="0.55"/><rect x="652.0" y="358.0" width="266.0" height="158.0" fill="#f1f1f1" rx="8.0"/><rect x="652.0" y="358.0" width="266.0" height="158.0" fill="#a2a2a2" rx="8.0" opacity="0.24"/><circle cx="785.0" cy="437.0" r="34.0" fill="#ffffff" opacity="0.55"/><rect x="652.0" y="532.0" width="148.0" height="10.0" fill="#151515" rx="5.0" opacity="0.75"/><rect x="652.0" y="552.0" width="60.0" height="9.0" fill="#a2a2a2" rx="4.0" opacity="0.55"/><rect x="942.0" y="358.0" width="266.0" height="158.0" fill="#f1f1f1" rx="8.0"/><rect x="942.0" y="358.0" width="266.0" height="158.0" fill="#a2a2a2" rx="8.0" opacity="0.30"/><circle cx="1075.0" cy="437.0" r="34.0" fill="#ffffff" opacity="0.55"/><rect x="942.0" y="532.0" width="148.0" height="10.0" fill="#151515" rx="5.0" opacity="0.75"/><rect x="942.0" y="552.0" width="60.0" height="9.0" fill="#a2a2a2" rx="4.0" opacity="0.55"/><rect x="72.0" y="584.0" width="266.0" height="158.0" fill="#f1f1f1" rx="8.0"/><rect x="72.0" y="584.0" width="266.0" height="158.0" fill="#a2a2a2" rx="8.0" opacity="0.12"/><circle cx="205.0" cy="663.0" r="34.0" fill="#ffffff" opacity="0.55"/><rect x="72.0" y="758.0" width="148.0" height="10.0" fill="#151515" rx="5.0" opacity="0.75"/><rect x="72.0" y="778.0" width="60.0" height="9.0" fill="#a2a2a2" rx="4.0" opacity="0.55"/><rect x="362.0" y="584.0" width="266.0" height="158.0" fill="#f1f1f1" rx="8.0"/><rect x="362.0" y="584.0" width="266.0" height="158.0" fill="#a2a2a2" rx="8.0" opacity="0.18"/><circle cx="495.0" cy="663.0" r="34.0" fill="#ffffff" opacity="0.55"/><rect x="362.0" y="758.0" width="148.0" height="10.0" fill="#151515" rx="5.0" opacity="0.75"/><rect x="362.0" y="778.0" width="60.0" height="9.0" fill="#a2a2a2" rx="4.0" opacity="0.55"/><rect x="652.0" y="584.0" width="266.0" height="158.0" fill="#f1f1f1" rx="8.0"/><rect x="652.0" y="584.0" width="266.0" height="158.0" fill="#a2a2a2" rx="8.0" opacity="0.24"/><circle cx="785.0" cy="663.0" r="34.0" fill="#ffffff" opacity="0.55"/><rect x="652.0" y="758.0" width="148.0" height="10.0" fill="#151515" rx="5.0" opacity="0.75"/><rect x="652.0" y="778.0" width="60.0" height="9.0" fill="#a2a2a2" rx="4.0" opacity="0.55"/><rect x="942.0" y="584.0" width="266.0" height="158.0" fill="#f1f1f1" rx="8.0"/><rect x="942.0" y="584.0" width="266.0" height="158.0" fill="#a2a2a2" rx="8.0" opacity="0.30"/><circle cx="1075.0" cy="663.0" r="34.0" fill="#ffffff" opacity="0.55"/><rect x="942.0" y="758.0" width="148.0" height="10.0" fill="#151515" rx="5.0" opacity="0.75"/><rect x="942.0" y="778.0" width="60.0" height="9.0" fill="#a2a2a2" rx="4.0" opacity="0.55"/></svg>